# xmcd
#
# Track frame offsets: 
#        150
#        18839
#        31640
#        52463
#        66454
#        84586
#        91728
#        105370
#        125771
#        141891
#        156306
#        173042
#
# Disc length: 2486 seconds
#
# Revision: 6
# Processed by: cddbd v1.5.2PL0 Copyright (c) Steve Scherf et al.
# Submitted via: ExactAudioCopy v1.3
#
DISCID=9c09b40c
DTITLE=Pino Daniele - Nero a metà (2008 remaster)
DYEAR=1980
DGENRE=Blues
TTITLE0=I say i' sto ccà
TTITLE1=Musica musica
TTITLE2=Quanno chiove
TTITLE3=Puozze passà'  nu guaio
TTITLE4=Voglio di più
TTITLE5=Appocundria
TTITLE6=A me me piace 'o blues
TTITLE7=E so cuntento 'e stà'
TTITLE8=Nun me scoccià'
TTITLE9=Alleria
TTITLE10=A testa in giù
TTITLE11=Sotto 'o sole
EXTD=2008 remaster EMI Italiana S.P.A. - original disc 1980 YEAR: 2008
EXTT0=
EXTT1=
EXTT2=
EXTT3=
EXTT4=
EXTT5=
EXTT6=
EXTT7=
EXTT8=
EXTT9=
EXTT10=
EXTT11=
PLAYORDER=
